<svg width="512" height="512" viewBox="0 0 512 512" xmlns="http://www.w3.org/2000/svg">
  <defs>
    <linearGradient id="bg" x1="0" y1="0" x2="1" y2="1">
      <stop offset="0" stop-color="#15351f"/>
      <stop offset="1" stop-color="#0e1512"/>
    </linearGradient>
    <radialGradient id="node" cx="0.35" cy="0.3" r="0.8">
      <stop offset="0" stop-color="#2b6b45"/>
      <stop offset="1" stop-color="#123021"/>
    </radialGradient>
    <radialGradient id="nodeRoot" cx="0.35" cy="0.3" r="0.85">
      <stop offset="0" stop-color="#3ec47b"/>
      <stop offset="1" stop-color="#1c7a4c"/>
    </radialGradient>
  </defs>

  <rect width="512" height="512" rx="116" fill="url(#bg)"/>

  <!-- connettori a gomito, stile albero (come nel Tree dell'app) -->
  <g fill="none" stroke="#3ec47b" stroke-width="10" stroke-linecap="round" stroke-linejoin="round" opacity="0.9">
    <path d="M150 182 V236 Q150 248 162 248 H244"/>
    <path d="M150 182 V346 Q150 358 162 358 H244"/>
    <path d="M296 248 V300 Q296 312 308 312 H360"/>
  </g>

  <!-- nodi = cerchi -->
  <!-- radice (visione) -->
  <circle cx="150" cy="182" r="40" fill="url(#nodeRoot)" stroke="#5fe39c" stroke-width="5"/>
  <circle cx="150" cy="182" r="15" fill="#eafff3"/>

  <!-- figlio A -->
  <circle cx="270" cy="248" r="30" fill="url(#node)" stroke="#34d27e" stroke-width="5"/>
  <circle cx="270" cy="248" r="10" fill="#58c4ff"/>

  <!-- nipote A1 -->
  <circle cx="386" cy="312" r="26" fill="url(#node)" stroke="#34d27e" stroke-width="5"/>
  <circle cx="386" cy="312" r="9" fill="#ffc24d"/>

  <!-- figlio B -->
  <circle cx="270" cy="358" r="30" fill="url(#node)" stroke="#34d27e" stroke-width="5"/>
  <circle cx="270" cy="358" r="10" fill="#4ae08c"/>
</svg>
